<svg xmlns="http://www.w3.org/2000/svg" version="1.1" xmlns:xlink="http://www.w3.org/1999/xlink" width="520.2547227772498" height="200" viewBox="-3.696000099182129 -0.12000000476837158 142.17599487304688 48.500572204589844"><path d="M16.28 20.72L16.28 20.72L16.24 20.16Q16.16 19.52 16 17.92Q15.84 16.32 15.80 15.64Q15.76 14.96 15.70 13.38Q15.64 11.80 15.76 11.12L15.76 11.12Q15.20 12.24 13.40 15.04L13.40 15.04Q11.12 18.68 11.04 19L11.04 19Q10.84 20 11.28 20.92L11.28 20.92Q11.40 21.12 14.92 21.20L14.92 21.20Q15.60 20.92 16.28 20.72ZM29.92 31.60L28.80 32.72L27.20 34L25.80 35.12L24.64 35.92Q23.84 36.52 23.08 36.96L23.08 36.96L21.24 37.92Q20.68 38.20 19.48 38.68L19.48 38.68Q20.16 44.40 18.68 46.60L18.68 46.60L17.56 47.72Q15.72 48.40 12.52 48.38Q9.32 48.36 6.08 47.78Q2.84 47.20 0.14 45.76Q-2.56 44.32-3.28 42.36L-3.28 42.36Q-3.60 41.52-3.66 40.66Q-3.72 39.80-3.68 39.10Q-3.64 38.40-3.28 37.50Q-2.92 36.60-2.68 36.06Q-2.44 35.52-1.82 34.60Q-1.20 33.68-0.90 33.28Q-0.60 32.88 0.16 31.94Q0.92 31 1.12 30.72L1.12 30.72L2.24 29.60Q8.12 24.56 12.52 22.28L12.52 22.28Q10.24 22.24 10.16 22.04L10.16 22.04Q9.72 21.16 9.92 20.12L9.92 20.12Q10 19.80 12.28 16.16L12.28 16.16Q12.40 16 12.60 15.64L12.60 15.64L14.08 13.28Q14.56 12.48 15.22 11.12Q15.88 9.76 16.28 8.56L16.28 8.56L16.36 8.28L17.48 7.16L17.40 7.40Q17.08 8.48 16.94 9.62Q16.80 10.76 16.82 12.10Q16.84 13.44 16.90 14.30Q16.96 15.16 17.14 16.78Q17.32 18.40 17.36 19.04L17.36 19.04L17.48 20.36Q20.96 19.40 24.48 19.60L24.48 19.60Q25.76 19.68 27 20.04L27 20.04L30.88 18.40L35.12 16.56L34 17.68L27.80 20.36Q30.52 21.44 31.84 23.68L31.84 23.68Q33.12 25.96 31.92 28.80L31.92 28.80Q31.72 29.28 31.40 29.74Q31.08 30.20 30.62 30.74Q30.16 31.28 29.92 31.60L29.92 31.60ZM25.08 20.96L25.08 20.96Q24.20 20.76 23.36 20.72L23.36 20.72Q20.40 20.56 17.56 21.20L17.56 21.20L17.88 25.36Q21.76 22.64 25.08 20.96ZM25.88 21.20L25.88 21.20Q21.80 23.04 17.92 25.68L17.92 25.68Q18.32 30.32 18.68 33.44L18.68 33.44Q18.76 34.08 19.02 35.66Q19.28 37.24 19.36 38.04L19.36 38.04Q21.44 37.28 22.36 36.80L22.36 36.80Q23 36.48 23.56 36.16L23.56 36.16L24.48 35.60Q24.88 35.40 25.38 35.08Q25.88 34.76 26.08 34.60L26.08 34.60L26.88 34.04L27.56 33.52Q27.72 33.40 28.40 32.84L28.40 32.84L29.24 32.12Q30.52 30.56 30.80 29.92L30.80 29.92Q32.08 26.88 30.52 24.52Q28.96 22.16 25.88 21.20ZM9.56 32.60L10.68 31.48L12.56 29.76L14.76 27.76Q15.76 26.88 16.72 26.20L16.72 26.20L16.36 21.48L16.20 21.52L15.36 22.36Q15.28 22.36 13.80 22.32L13.80 22.32Q8.56 24.40 1.88 30.08L1.88 30.08Q1.72 30.24 1.48 30.60L1.48 30.60Q0.64 31.60 0.24 32.16L0.24 32.16L-0.84 33.76Q-1.52 34.76-1.82 35.52Q-2.12 36.28-2.40 37.28Q-2.68 38.28-2.60 39.26Q-2.52 40.24-2.16 41.24L-2.16 41.24Q-1.60 42.76 0.16 43.96Q1.92 45.16 4.26 45.88Q6.60 46.60 9.16 46.96Q11.72 47.32 14.08 47.28Q16.44 47.24 18.04 46.80L18.04 46.80Q18.96 44.40 18.24 39.16L18.24 39.16Q9.80 42.28 7 40.96L7 40.96Q5.16 40.12 6.36 37.24L6.36 37.24Q6.68 36.48 7.22 35.70Q7.76 34.92 8.48 34.02Q9.20 33.12 9.56 32.60L9.56 32.60ZM11.68 30.64L10.44 31.80Q10.20 32.16 9.46 33.08Q8.72 34 8.26 34.70Q7.80 35.40 7.48 36.12L7.48 36.12Q6.60 38.24 7.36 39.26Q8.12 40.28 10.52 40.20L10.52 40.20Q13.44 40.12 18.16 38.48L18.16 38.48Q18.08 38.04 17.86 36.60Q17.64 35.16 17.56 34.56L17.56 34.56Q17.16 31.36 16.76 26.48L16.76 26.48L15.72 27.24Q15.04 27.72 14.32 28.36L14.32 28.36L13.04 29.44Q12.56 29.84 11.68 30.64L11.68 30.64ZM40.80 18.12L41.76 13.72L42.88 12.60L41.96 16.88L40.96 21.44Q40.64 22.88 39.98 25.62Q39.32 28.36 38.80 30.14Q38.28 31.92 37.54 34.22Q36.80 36.52 36 38.52L36 38.52L38.88 34.88L40 33.76Q39.68 34.56 39.48 35.16Q39.28 35.76 39.30 36.26Q39.32 36.76 39.36 37.10Q39.40 37.44 39.74 37.74Q40.08 38.04 40.32 38.22Q40.56 38.40 41.20 38.60Q41.84 38.80 42.24 38.90Q42.64 39 43.52 39.20L43.52 39.20Q44 39.32 44.24 39.40L44.24 39.40L43.12 40.52Q42.88 40.48 42.36 40.36L42.36 40.36L41.16 40.08Q40.80 39.96 40.18 39.76Q39.56 39.56 39.32 39.40L39.32 39.40L38.72 38.96Q38.36 38.72 38.30 38.42Q38.24 38.12 38.18 37.68Q38.12 37.24 38.24 36.72Q38.36 36.20 38.64 35.52L38.64 35.52L35.76 39.16L34.64 40.28Q35.48 38.24 36.26 35.88Q37.04 33.52 37.56 31.70Q38.08 29.88 38.76 27.04L38.76 27.04L39.76 22.80L40.80 18.12ZM48.88 36.64L47.76 37.76Q45.84 39.52 43.84 40.36L43.84 40.36Q42 41.16 42.16 39.92L42.16 39.92Q42.24 39 43.44 37.08L43.44 37.08L44.56 35.96Q42.24 39.72 44 39.52L44 39.52Q45.36 39.36 48 37.40L48 37.40Q48.60 36.16 47.16 36.20L47.16 36.20Q46.80 36.20 45.92 36.32L45.92 36.32Q45.32 36.40 45.08 36.40L45.08 36.40L46.20 35.28Q46.32 35.28 47.44 35.12L47.44 35.12Q46.64 33.92 44.56 35.96L44.56 35.96L45.08 35.44L45.76 34.76Q46.04 34.48 46.42 34.14Q46.80 33.80 47.12 33.68Q47.44 33.56 47.76 33.52Q48.08 33.48 48.36 33.74Q48.64 34 48.80 34.52L48.80 34.52L48.28 35.04Q49.04 35.04 49.24 35.34Q49.44 35.64 48.88 36.64L48.88 36.64ZM54.20 37.40L54.20 37.40Q56 35.60 56.16 35.72L56.16 35.72Q56.24 35.92 56.20 36.46Q56.16 37 56.08 37.68L56.08 37.68L56 38.36Q56.04 38.92 56.14 39.20Q56.24 39.48 56.46 39.60Q56.68 39.72 56.90 39.74Q57.12 39.76 57.64 39.76Q58.16 39.76 58.60 39.84L58.60 39.84L57.48 40.96Q57.04 40.92 56.52 40.90Q56 40.88 55.78 40.88Q55.56 40.88 55.32 40.76Q55.08 40.64 55 40.34Q54.92 40.04 54.88 39.48L54.88 39.48L54.96 38.80Q55.04 38.12 55.08 37.58Q55.12 37.04 55.04 36.84L55.04 36.84Q54.92 36.76 54.20 37.40ZM49.56 35.92L50.36 34.04L51.48 32.92Q51.40 33.12 51.22 33.50Q51.04 33.88 50.92 34.20Q50.80 34.52 50.68 34.80L50.68 34.80Q50.52 35.28 50.12 36.68L50.12 36.68Q49.48 38.96 49.56 39.56L49.56 39.56Q49.84 41.68 53.20 38.40L53.20 38.40Q50.16 41.52 49.16 41.56L49.16 41.56Q48.56 41.60 48.44 40.68L48.44 40.68Q48.36 40.08 49 37.80L49 37.80Q49.36 36.40 49.56 35.92L49.56 35.92ZM78.04 13.84L76.92 14.96Q76.96 13.72 77.12 11.76L77.12 11.76L77.36 8.40Q77.44 7 77.42 5.22Q77.40 3.44 77.20 1.96L77.20 1.96L77.20 1.60Q77.16 1.28 77.10 1.14Q77.04 1 76.88 1L76.88 1Q76.32 1.04 75.08 1.76L75.08 1.76Q72.72 5.40 71 10.36Q69.28 15.32 69.84 19L69.84 19Q78.44 13.92 87.88 13.64L87.88 13.64Q88.80 13.60 90.78 13.76Q92.76 13.92 95.36 14.32Q97.96 14.72 99.52 15.64Q101.08 16.56 100.44 17.88L100.44 17.88Q100.20 18.36 99.24 19.16L99.24 19.16L99.32 19Q99.96 17.72 98.38 16.78Q96.80 15.84 94.22 15.44Q91.64 15.04 89.64 14.88Q87.64 14.72 86.76 14.76L86.76 14.76Q78 15.04 69.92 19.44L69.92 19.44Q70.36 21.44 71.60 22.72L71.60 22.72Q73.24 24.36 76.08 24.92Q78.92 25.48 81.94 25.10Q84.96 24.72 88.24 23.80Q91.52 22.88 94.10 21.80Q96.68 20.72 98.64 19.68L98.64 19.68L97.52 20.80Q97.60 20.72 98.30 20.14Q99 19.56 99.24 19.16L99.24 19.16Q98.84 19.48 98.64 19.68L98.64 19.68L97.52 20.80Q95.56 21.88 92.98 22.94Q90.40 24 87.10 24.92Q83.80 25.84 80.78 26.22Q77.76 26.60 74.94 26.04Q72.12 25.48 70.48 23.84L70.48 23.84Q69.08 22.44 68.72 20.12L68.72 20.12Q65.68 21.92 63 24.24L63 24.24Q62.96 24.28 62.72 24.68Q62.48 25.08 62.40 25.24L62.40 25.24L62.12 25.76Q61.92 26.16 61.92 26.40L61.92 26.40L61.92 26.92Q61.92 27.24 62.12 27.48Q62.32 27.72 62.64 27.92L62.64 27.92Q63.96 28.68 66.98 28.98Q70 29.28 73.72 29.32Q77.44 29.36 78.24 29.44L78.24 29.44Q80.96 29.68 85.04 30.40L85.04 30.40L86.28 30.60Q91.72 30.24 101.96 30.44L101.96 30.44L100.84 31.56Q94.04 31.44 90.32 31.52L90.32 31.52Q94.88 32.84 95.44 34.68L95.44 34.68Q95.52 34.88 95.42 35.08Q95.32 35.28 95.14 35.52Q94.96 35.76 94.88 35.92L94.88 35.92L93.76 37.04Q88.96 38.84 83.68 39.68L83.68 39.68Q78.68 40.44 71.44 41L71.44 41Q67.36 41.32 65.40 41.24L65.40 41.24Q63.88 41.20 62.60 40.96Q61.32 40.72 60.74 40.46Q60.16 40.20 60.16 40.04L60.16 40.04Q60.16 39.84 60.24 39.66Q60.32 39.48 60.48 39.30Q60.64 39.12 60.74 39.02Q60.84 38.92 61.10 38.72Q61.36 38.52 61.44 38.44L61.44 38.44Q61.32 38.68 61.28 38.92L61.28 38.92Q61.28 39.08 61.86 39.32Q62.44 39.56 63.72 39.82Q65 40.08 66.52 40.12L66.52 40.12Q68.56 40.16 72.56 39.88L72.56 39.88Q79.40 39.36 84.50 38.58Q89.60 37.80 94.32 36.12L94.32 36.12Q94.36 35.96 94.32 35.80L94.32 35.80Q93.52 33.24 85.16 31.76L85.16 31.76Q75.76 32.40 67.84 35.16L67.84 35.16Q66.92 35.48 65.92 35.96Q64.92 36.44 63.72 37.08Q62.52 37.72 61.84 38.04L61.84 38.04L62.60 37.28Q62.52 37.36 62.32 37.52L62.32 37.52L61.92 37.84Q61.80 37.96 61.66 38.12Q61.52 38.28 61.44 38.44L61.44 38.44Q61.68 38.24 61.84 38.04L61.84 38.04L62.60 37.28L62.96 36.92Q63.64 36.60 64.84 35.96Q66.04 35.32 67.04 34.84Q68.04 34.36 68.96 34.04L68.96 34.04Q74.92 31.96 81.36 31.12L81.36 31.12Q79.04 30.72 77.12 30.56L77.12 30.56Q76.32 30.48 72.60 30.46Q68.88 30.44 65.86 30.14Q62.84 29.84 61.52 29.04L61.52 29.04Q60.92 28.68 60.82 28.08Q60.72 27.48 60.90 27.06Q61.08 26.64 61.52 25.92Q61.96 25.20 62 25.12L62 25.12L63.12 24Q65.68 21.64 68.68 19.72L68.68 19.72Q68.36 17.04 69.34 13.40Q70.32 9.76 71.72 6.90Q73.12 4.04 74.52 2.08L74.52 2.08L75.64 0.96Q75.92 0.84 76.38 0.54Q76.84 0.24 77.24 0.06Q77.64-0.12 78-0.12L78-0.12Q78.16-0.12 78.22 0Q78.28 0.12 78.30 0.46Q78.32 0.80 78.32 0.84L78.32 0.84Q78.52 2.28 78.54 4.08Q78.56 5.88 78.48 7.28L78.48 7.28L78.24 10.64Q78.08 12.60 78.04 13.84L78.04 13.84ZM103.52 33.36L103.52 33.36L104.64 32.24Q103.84 33.84 102.76 36.58Q101.68 39.32 102.08 39.88L102.08 39.88Q102.16 40 102.28 40.04Q102.40 40.08 102.62 40.14Q102.84 40.20 102.92 40.20L102.92 40.20Q104.60 38.32 106.28 36.16L106.28 36.16L106.32 36.12Q106.92 35.20 107.44 34.48L107.44 34.48L108.88 32.68L110 31.56L107.44 35.04Q106.92 35.84 106.60 36.44Q106.28 37.04 106.12 37.44Q105.96 37.84 106 38.04Q106.04 38.24 106.12 38.34Q106.20 38.44 106.52 38.36Q106.84 38.28 107.06 38.18Q107.28 38.08 107.76 37.84L107.76 37.84L108.52 37.40L109.32 36.92L109.92 36.56Q110.16 36.40 110.48 36.22Q110.80 36.04 111.04 35.92Q111.28 35.80 111.44 35.76L111.44 35.76Q111.48 35.72 111.62 35.68Q111.76 35.64 111.86 35.60Q111.96 35.56 112.08 35.54Q112.20 35.52 112.26 35.56Q112.32 35.60 112.36 35.68L112.36 35.68Q112.48 35.92 112.22 36.46Q111.96 37 112.08 37.24L112.08 37.24Q112.48 38.04 113.32 38.24Q114.16 38.44 114.88 38.26Q115.60 38.08 116.60 37.72Q117.60 37.36 117.76 37.32L117.76 37.32L116.64 38.44Q116.48 38.48 115.48 38.84Q114.48 39.20 113.76 39.38Q113.04 39.56 112.18 39.36Q111.32 39.16 110.96 38.36L110.96 38.36Q110.84 38.12 111.08 37.58Q111.32 37.04 111.24 36.80L111.24 36.80Q111.20 36.72 111.12 36.70Q111.04 36.68 110.96 36.72L110.96 36.72L110.72 36.72Q110.64 36.76 110.50 36.82Q110.36 36.88 110.32 36.88L110.32 36.88Q110 37 107.32 38.56L107.32 38.56Q104.88 40 104.84 39.16L104.84 39.16Q104.84 38.60 105.64 37.24L105.64 37.24Q104.32 38.80 102.96 40.24L102.96 40.24L101.84 41.36Q101.72 41.32 101.52 41.28Q101.32 41.24 101.18 41.18Q101.04 41.12 100.96 41L100.96 41Q100.56 40.44 101.62 37.72Q102.68 35 103.52 33.36ZM117.88 40.40L116.76 41.52Q116.76 40.76 116.72 40.30Q116.68 39.84 116.80 39.12Q116.92 38.40 116.98 38Q117.04 37.60 117.24 36.92L117.24 36.92L117.56 35.84Q117.68 35.48 117.96 34.80L117.96 34.80L118.36 33.76L118.80 32.64Q119.08 31.96 119.28 31.52L119.28 31.52L120.40 30.40Q120.40 30.52 120.14 33.70Q119.88 36.88 120.08 39.16Q120.28 41.44 121.20 41.72L121.20 41.72Q121.52 41.80 121.82 41.60Q122.12 41.40 122.48 41Q122.84 40.60 123.04 40.48L123.04 40.48L121.92 41.60Q121.72 41.76 121.36 42.14Q121 42.52 120.70 42.72Q120.40 42.92 120.08 42.84L120.08 42.84Q119.48 42.68 119.18 41.74Q118.88 40.80 118.90 39.10Q118.92 37.40 118.96 36.36Q119 35.32 119.16 33.48L119.16 33.48Q117.68 37.32 117.88 40.40L117.88 40.40ZM119.20 26.88Q119.44 27.12 119.44 27.44Q119.44 27.76 119.20 28Q118.96 28.24 118.64 28.24Q118.32 28.24 118.08 28Q117.84 27.76 117.84 27.44Q117.84 27.12 118.08 26.88Q118.32 26.64 118.64 26.64Q118.96 26.64 119.20 26.88ZM122.08 32.12L120.96 33.24Q120.76 33.20 120.58 33.16Q120.40 33.12 120.30 33.10Q120.20 33.08 120.16 33.06Q120.12 33.04 120.04 33.04L120.04 33.04L119.96 33.04Q119.92 33.04 119.76 33.08Q119.60 33.12 119.48 33.16L119.48 33.16L120.60 32.04Q122.44 30.84 124.60 29.88L124.60 29.88Q125.16 25.16 125.20 22.32L125.20 22.32Q124.76 18.44 124.76 15.80L124.76 15.80L125.88 14.68Q126.40 17.68 126.32 21.16L126.32 21.16L126.44 22.12L126.28 22.28Q126.20 24.84 125.64 29.40L125.64 29.40Q127.16 28.76 129.36 28L129.36 28L128.24 29.12Q126.68 29.68 125.56 30.12L125.56 30.12Q125.08 34.08 124.92 36.12L124.92 36.12Q124.92 36.40 124.84 37.18Q124.76 37.96 124.74 38.36Q124.72 38.76 124.70 39.46Q124.68 40.16 124.80 40.60Q124.92 41.04 125.10 41.58Q125.28 42.12 125.64 42.52Q126 42.92 126.48 43.24L126.48 43.24L125.36 44.36Q124.84 44.04 124.50 43.64Q124.16 43.24 123.96 42.70Q123.76 42.16 123.66 41.72Q123.56 41.28 123.56 40.58Q123.56 39.88 123.58 39.48Q123.60 39.08 123.68 38.30Q123.76 37.52 123.80 37.24L123.80 37.24Q123.96 35.24 124.52 30.52L124.52 30.52Q122.88 31.24 121.48 31.96L121.48 31.96Q121.76 32.04 122.08 32.12L122.08 32.12ZM135.04 18.12L136 13.72L137.12 12.60L136.20 16.88L135.20 21.44Q134.88 22.88 134.22 25.62Q133.56 28.36 133.04 30.14Q132.52 31.92 131.78 34.22Q131.04 36.52 130.24 38.52L130.24 38.52L133.12 34.88L134.24 33.76Q133.92 34.56 133.72 35.16Q133.52 35.76 133.54 36.26Q133.56 36.76 133.60 37.10Q133.64 37.44 133.98 37.74Q134.32 38.04 134.56 38.22Q134.80 38.40 135.44 38.60Q136.08 38.80 136.48 38.90Q136.88 39 137.76 39.20L137.76 39.20Q138.24 39.32 138.48 39.40L138.48 39.40L137.36 40.52Q137.12 40.48 136.60 40.36L136.60 40.36L135.40 40.08Q135.04 39.96 134.42 39.76Q133.80 39.56 133.56 39.40L133.56 39.40L132.96 38.96Q132.60 38.72 132.54 38.42Q132.48 38.12 132.42 37.68Q132.36 37.24 132.48 36.72Q132.60 36.20 132.88 35.52L132.88 35.52L130 39.16L128.88 40.28Q129.72 38.24 130.50 35.88Q131.28 33.52 131.80 31.70Q132.32 29.88 133 27.04L133 27.04L134 22.80L135.04 18.12Z" fill="black"></path></svg>